<svg id="fdee7934-b47d-477f-88d7-486d2c501139" data-name="素材" xmlns="http://www.w3.org/2000/svg" viewBox="0 0 350 350"><title>Vue_EC</title><g id="a3eca276-d664-4d3e-b26c-d9f80d871cf4" data-name="footerLogo"><path d="M325.76,349.5h-302A23.77,23.77,0,0,1,0,325.76v-302A23.77,23.77,0,0,1,23.74,0h302A23.77,23.77,0,0,1,349.5,23.74v302A23.77,23.77,0,0,1,325.76,349.5ZM23.74,5.28A18.48,18.48,0,0,0,5.28,23.74v302a18.48,18.48,0,0,0,18.46,18.46h302a18.48,18.48,0,0,0,18.46-18.46v-302A18.48,18.48,0,0,0,325.76,5.28Z" style="fill:#f5b857"/><path d="M99.34,240.4,110,208.06l1.2-3.63h33.3l26.68-89.11,33,110.55c7.84,2.26,12.94,7,15.57,14.53h10.15V218.23L227,217.7l-4.31-.8V202.16l4.26-.83,30.41-5.92,38.32-123.7,22.22-3.83V50.71H258.25V67.88l18.06,3-32,111.63L214.19,70.78l24-2.9V50.71H147.69V67.88l18.06,2.26L134.57,180,107.1,69.92l19.36-2V50.71H31.61V67.88l15.3,1.58L98.82,240.4Z" style="fill:#f5b857"/><path d="M143.22,287.88c-.2-10.69-.2-21.58-.2-32.56v-4.27c0-7.83,0-15.69.08-23.55q0-4.53.12-9.05l2.67-.28,5.79-.59v-7.87H115L104.9,240.4h0l-1.74,5.27-5.48,16.64-18.4-52.6H39.81v7.87l11.6,1.33v68.24l-13.2,1.64v7.86h33.6v-7.86l-11.07-1.68V258.38l-.52-27,23.32,65.25H95.28l17.12-51,1.77-5.27h0L117,232l-.11,8.36h0l-.07,5.27-.19,13.51c-.1,7.73,0,17.91-.2,28.56l-9.13,1.05v7.86h45.07V289l-.09-.26Z" style="fill:#fff"/><path d="M218.89,288.25a2.1,2.1,0,0,1-2.27-2.26V255.45a48.49,48.49,0,0,0-.87-9.78,25.06,25.06,0,0,0-1.68-5.27h0a16.11,16.11,0,0,0-8-8.2,24.44,24.44,0,0,0-6.07-1.91,46,46,0,0,0-8.56-.71c-21.47,0-32.54,8-32.54,19.47,1.34,4.8,4.94,7.2,10.14,7.2,5.73,0,10.93-4.13,10.93-14.94v-4.48c.68,0,1.34-.05,2-.05,8.4,0,10.14,3.6,10.14,14.93v4.8c-3.07.8-6,1.55-8.14,2.14-21.6,5.73-27.34,12.67-27.34,22.93a22.16,22.16,0,0,0,.13,2.34,19,19,0,0,0,.89,4.29c2.25,6.79,8.15,10.58,16.32,10.58,9.59,0,13.72-3.73,19-9.44,2.23,6.06,7.14,9.44,15.54,9.44,7.15,0,11.86-1.83,15.12-6.23v-6.62l-1.12-.62C220.89,287.72,220,288.25,218.89,288.25Zm-26.8-3.38c-2.32,1.64-4,2.32-5.61,2.32-3.86,0-6.93-3.21-6.93-9.74a14.55,14.55,0,0,1,8.67-13.2,34,34,0,0,1,3.87-1.53Z" style="fill:#fff"/><path d="M260.49,268.65V220.51L261,202l-.15-.11-2.11-1.36-3.18.62L228,206.51v6l7.2,1.33V240.4h0v28.25c0,6.61-.09,13.23-.22,19.84l-3.64.82-2.4.54v6.8h37.87v-6.8l-6-1.23C260.58,282,260.49,275.31,260.49,268.65Z" style="fill:#fff"/><path d="M305.26,288.62c-.14-6.66-.23-13.31-.23-20V220.51l.53-18.53-2.27-1.47-30.8,6v6l7.2,1.33v54.81c0,6.61-.09,13.23-.22,19.84l-6.05,1.36v6.8h37.87v-6.8Z" style="fill:#fff"/></g></svg>